# Made in Blockbench 5.0.4
mtllib fire.mtl

o cone
v 0.3632712640026804 0 0.49999999999999994
v 0.5877852522924731 0 -0.1909830056250525
v 7.5687334608683e-17 0 -0.6180339887498948
v -0.587785252292473 0 -0.19098300562505263
v -0.36327126400268056 0 0.4999999999999999
v 0.27636023433472645 -0.1875 0.3593749999999999
v -0.27636023433472656 -0.1875 0.3593749999999999
v 5.024693214661924e-18 -0.375 -0.014846176265636835
v -0.44716025229247314 -0.1875 -0.1577859462891447
v 6.260417059515781e-17 -0.1875 -0.4774089887498948
v 0.44716025229247314 -0.1875 -0.15778594628914455
v 7.407831398060809e-17 0.375 -0.5711589887498948
v -0.5409102522924731 0.375 -0.17991731917974998
v 0.5409102522924731 0.375 -0.17991731917974985
v -0.33430092078002926 0.375 0.4531249999999999
v 0.3343009207800291 0.375 0.4531249999999999
v 4.83999619573342e-17 0.8125 -0.3836589887498948
v -0.35341025229247314 0.8125 -0.1356545733985394
v 0.35341025229247314 0.8125 -0.1356545733985393
v -0.21841954788942394 0.8125 0.2656249999999999
v 0.21841954788942383 0.8125 0.2656249999999999
v 2.7001335271272626e-17 1.015625 -0.2274089887498948
v -0.19716025229247314 1.015625 -0.09876895191419724
v 1.613604074220503e-18 1.390625 -0.041239378515657885
v 0.19716025229247314 1.015625 -0.09876895191419721
v -0.12185173714725282 1.015625 0.10937499999999989
v 0.12185173714725277 1.015625 0.10937499999999989
vt 0.5000001446220527 0.27345767022621104
vt 0.5000001446220526 1
vt 0 0.6367314490566394
vt 0 0.29288749999999997
vt 0.7265375 0.29288749999999997
vt 0.36326875 1
vt 0 0.38196874999999997
vt 0.5877875 0.80901875
vt 0 1
vt 0 0.29288749999999997
vt 0.7265375 0.29288749999999997
vt 0.36326875 1
vt 0 0.80901875
vt 0.5877875 0.38196874999999997
vt 0.5877875 1
vt 0 0.29288749999999997
vt 0.7265375 0.29288749999999997
vt 0.36326875 1
vt 0.42705272071463607 1
vt 0 0.41221625517257454
vt 0.6180355839333302 0.41221625517257454
vt 0 0.29288749999999997
vt 0.7265375 0.29288749999999997
vt 0.36326875 1
vt 0.7265375 1
vt 0 1
vt 0.36326875 0.5
vt 0 0.29288749999999997
vt 0.7265375 0.29288749999999997
vt 0.36326875 1
vt 0 0.9375
vt 0.7265375000000001 0.9375
vt 0.7265375000000001 1
vt 0 1
vt 0 0.8125
vt 0.7265375 0.8125
vt 0.7265375 0.875
vt 0 0.875
vt 0 0.75
vt 0.7265375 0.75
vt 0.7265375 0.8125
vt 0 0.8125
vt 0 0.75
vt 0.7265375 0.75
vt 0.7265375 0.8125
vt 0 0.8125
vt 0 0.8125
vt 0.7265375000000001 0.8125
vt 0.7265375000000001 0.875
vt 0 0.875
vt 0.7265375000000001 0.6875
vt 0 0.6875
vt 0 0.625
vt 0.7265375000000001 0.625
vt 0.7265375000000001 0.6875
vt 0 0.6875
vt 0 0.625
vt 0.7265375000000001 0.625
vt 0.7265375000000001 0.6875
vt 0 0.6875
vt 0 0.625
vt 0.7265375000000001 0.625
vt 0.7265375000000001 0.6875
vt 0 0.6875
vt 0 0.625
vt 0.7265375000000001 0.625
vt 0.7265375000000001 0.6875
vt 0 0.6875
vt 0 0.625
vt 0.7265375000000001 0.625
vt 0.667575 0.6875
vt 0 0.6875
vt 0 0.625
vt 0.667575 0.625
vt 0.667575 0.6875
vt 0 0.6875
vt 0 0.625
vt 0.667575 0.625
vt 0.6658999999999999 0.6875
vt 0 0.6875
vt 0 0.625
vt 0.6658999999999999 0.625
vt 0.6686000000000001 0.6875
vt 0 0.6875
vt 0 0.625
vt 0.6686000000000001 0.625
vt 0.6659 0.6875
vt 0 0.6875
vt 0 0.625
vt 0.6659 0.625
vt 0.43174375 0.6875
vt 0 0.6875
vt 0 0.625
vt 0.43174375 0.625
vt 0.43174375 0.6875
vt 0 0.6875
vt 0 0.625
vt 0.43174375 0.625
vt 0.423375 0.6875
vt 0 0.6875
vt 0 0.625
vt 0.423375 0.625
vt 0.4368375 0.6875
vt 0 0.6875
vt 0 0.625
vt 0.4368375 0.625
vt 0.423375 0.6875
vt 0 0.6875
vt 0 0.625
vt 0.423375 0.625
vn 0.4203647645922278 -0.8966711976265964 0.13883165358161842
vn 0.860011598612428 0.40442444615712 0.31116059776681715
vn 0.25933040501477717 -0.8950514336011823 -0.3628094158691864
vn 0.504563670699889 0.3839164390555682 -0.7733199014849846
vn -0.259330405014777 -0.8950514336011821 -0.36280941586918647
vn -0.5045636706998888 0.38391643905556827 -0.7733199014849849
vn -0.4203647645922279 -0.8966711976265964 0.13883165358161828
vn -0.860011598612428 0.4044244461571199 0.31116059776681687
vn 0 -0.894054742556445 0.44795771821939717
vn 0 0.3727009120531483 0.9279515236017188
vn 0 -0.6000000000000002 0.8
vn -0.7869103256404381 -0.5596695375172419 0.25988872267895036
vn -0.5029846345410027 -0.5018270375931447 -0.7036874887022949
vn 0.4963998392089546 -0.5208564023490511 -0.6944752031320682
vn 0.7937299355303129 -0.5488851300101582 0.26214099926714485
vn -0.5830825252254666 0.10076742214523148 -0.8061393771618516
vn 0.5833183358234283 0.09671237386384207 -0.8064653965507799
vn -0.9449825515589964 0.10902184081662593 0.30841889610398937
vn 0 0.12403473458920848 0.9922778767136679
vn 0.9447185199775223 0.11152510973548567 0.30833272273628
vn -0.5420352126485873 0.331032357368347 -0.7724088338594761
vn 0.5456498702880277 0.31251721484370965 -0.7775597787186458
vn -0.8877673130690295 0.35025714693816795 0.29864549028058457
vn 0 0.3939192985791678 0.919145030018058
vn 0.8837171387923949 0.3614786731223476 0.29728300907096944
vn -0.45936511907737543 0.5415740817404594 -0.7040463062625972
vn 0.47423887622747346 0.49678702650046647 -0.7268425817020684
vn -0.7842570386974174 0.5517479319073857 0.2837518579489488
vn 0 0.6097107608496924 0.7926239891046003
vn 0.7671886021075014 0.5782499713341498 0.2775763308504398
usemtl none
f 11/1/1 6/2/1 8/3/1
f 27/4/2 25/5/2 24/6/2
f 10/7/3 11/8/3 8/9/3
f 25/10/4 22/11/4 24/12/4
f 9/13/5 10/14/5 8/15/5
f 22/16/6 23/17/6 24/18/6
f 7/19/7 9/20/7 8/21/7
f 23/22/8 26/23/8 24/24/8
f 6/25/9 7/26/9 8/27/9
f 26/28/10 27/29/10 24/30/10
f 7/31/11 6/32/11 1/33/11 5/34/11
f 9/35/12 7/36/12 5/37/12 4/38/12
f 10/39/13 9/40/13 4/41/13 3/42/13
f 11/43/14 10/44/14 3/45/14 2/46/14
f 6/47/15 11/48/15 2/49/15 1/50/15
f 13/51/16 12/52/16 3/53/16 4/54/16
f 12/55/17 14/56/17 2/57/17 3/58/17
f 15/59/18 13/60/18 4/61/18 5/62/18
f 16/63/19 15/64/19 5/65/19 1/66/19
f 14/67/20 16/68/20 1/69/20 2/70/20
f 18/71/21 17/72/21 12/73/21 13/74/21
f 17/75/22 19/76/22 14/77/22 12/78/22
f 20/79/23 18/80/23 13/81/23 15/82/23
f 21/83/24 20/84/24 15/85/24 16/86/24
f 19/87/25 21/88/25 16/89/25 14/90/25
f 23/91/26 22/92/26 17/93/26 18/94/26
f 22/95/27 25/96/27 19/97/27 17/98/27
f 26/99/28 23/100/28 18/101/28 20/102/28
f 27/103/29 26/104/29 20/105/29 21/106/29
f 25/107/30 27/108/30 21/109/30 19/110/30